<?xml version="1.0" standalone="no"?>
<!DOCTYPE svg PUBLIC "-//W3C//DTD SVG 20010904//EN"
 "http://www.w3.org/TR/2001/REC-SVG-20010904/DTD/svg10.dtd">
<svg version="1.0" xmlns="http://www.w3.org/2000/svg"
 width="372.000000pt" height="372.000000pt" viewBox="0 0 372.000000 372.000000"
 preserveAspectRatio="xMidYMid meet">
<metadata>
Created by potrace 1.13, written by Peter Selinger 2001-2015
</metadata>
<g transform="translate(0.000000,372.000000) scale(0.100000,-0.100000)"
fill="#000000" stroke="none">
<path d="M2835 2959 c-153 -82 -265 -195 -430 -435 -134 -194 -145 -208 -159
-189 -11 16 -16 15 -67 -10 -171 -87 -293 -212 -494 -510 -119 -176 -171 -220
-277 -232 l-51 -6 33 34 c213 222 365 631 346 933 -13 207 -90 338 -207 353
-27 4 -60 19 -87 40 -38 29 -51 33 -101 33 -86 0 -166 -43 -266 -144 -158
-159 -274 -379 -347 -657 -29 -114 -32 -137 -33 -284 0 -184 14 -249 72 -329
39 -55 81 -76 150 -76 26 0 68 -9 92 -20 55 -25 124 -25 179 0 37 17 57 18
155 13 109 -6 116 -5 175 22 82 37 147 107 303 327 130 182 229 291 319 351
30 21 58 37 61 37 4 0 10 -11 13 -25 4 -14 11 -25 16 -25 6 0 31 19 57 43 43
39 81 87 260 333 124 169 228 267 351 328 56 28 61 40 37 86 -19 36 -45 38
-100 9z m-1266 -178 c54 -84 66 -138 65 -306 0 -123 -4 -166 -23 -240 -65
-250 -167 -443 -317 -597 -62 -64 -68 -68 -110 -68 -24 0 -44 2 -44 4 0 2 27
31 60 65 149 153 266 373 332 621 49 187 50 383 2 548 -10 35 1 26 35 -27z
m-269 -19 c0 -119 -135 -332 -210 -332 -44 0 -48 24 -15 84 50 92 195 276 217
276 4 0 8 -13 8 -28z m-280 -127 c42 -51 -68 -305 -132 -305 -58 0 -9 204 70
288 34 36 44 39 62 17z m378 -135 c21 -30 23 -44 19 -100 -11 -161 -132 -330
-237 -332 -22 0 -47 5 -55 12 -46 38 -45 172 2 272 78 166 210 238 271 148z
m-528 -256 c0 -136 -106 -295 -126 -190 -16 89 63 268 111 250 11 -5 15 -21
15 -60z m234 -217 c15 -20 21 -47 24 -97 10 -172 -95 -330 -187 -280 -37 19
-54 102 -40 192 26 169 139 272 203 185z m-271 -139 c-4 -123 -8 -155 -21
-165 -93 -74 -93 195 0 294 12 13 23 23 24 23 1 0 0 -69 -3 -152z"/>
<path d="M3093 1831 c-17 -18 -32 -50 -73 -158 -15 -39 -22 -40 -61 -12 -28
20 -31 20 -49 4 -10 -9 -22 -31 -26 -49 l-7 -31 -14 48 c-14 49 -39 70 -53 47
-5 -7 -11 -33 -15 -56 -6 -45 -25 -71 -25 -36 0 11 -6 25 -14 31 -19 16 -30 0
-56 -85 -16 -53 -27 -75 -46 -84 -36 -20 -49 -3 -34 46 15 51 10 94 -13 108
-15 9 -22 7 -38 -13 -16 -20 -19 -37 -17 -107 1 -46 -1 -86 -5 -90 -4 -4 -17
2 -30 14 -13 12 -30 22 -39 22 -20 0 -45 -29 -53 -62 -9 -35 -25 -37 -25 -4 0
37 -18 76 -34 76 -20 0 -26 -11 -42 -83 -29 -126 -44 -140 -88 -82 -36 46 -53
45 -66 -7 -18 -72 -32 -100 -67 -135 -41 -40 -74 -43 -125 -8 -48 32 -73 97
-73 188 0 63 2 71 29 93 38 33 70 29 74 -11 2 -16 10 -54 18 -83 11 -41 19
-52 32 -50 32 7 12 125 -31 189 -19 28 -29 33 -53 31 -83 -9 -133 -147 -104
-285 15 -75 78 -147 129 -147 71 0 138 56 178 148 14 33 15 33 38 18 13 -9 33
-16 44 -16 25 0 69 56 77 99 9 46 22 47 29 4 12 -73 16 -84 28 -80 14 4 29 33
52 99 l17 48 41 -21 c39 -21 41 -21 54 -3 8 11 12 26 10 34 -4 18 29 25 38 9
10 -16 32 -10 65 18 21 17 30 32 27 45 -3 10 -2 16 3 13 4 -3 11 11 14 30 8
40 26 38 26 -3 0 -34 16 -60 28 -47 5 6 17 40 27 78 9 37 21 67 26 67 8 0 29
-63 29 -88 0 -29 26 -3 40 41 21 63 30 71 73 59 27 -8 40 -7 56 4 18 13 20 12
23 -8 5 -40 32 -25 61 35 27 56 29 58 47 42 33 -29 91 11 76 52 -5 13 -8 13
-22 -1 -18 -19 -32 -13 -44 20 -18 45 -28 34 -72 -76 -6 -14 -12 -20 -14 -14
-3 6 8 47 24 92 31 86 29 119 -5 83z"/>
<path d="M1725 1350 c-16 -17 -17 -26 -6 -77 6 -31 20 -66 31 -78 11 -12 20
-27 20 -34 0 -21 65 -155 85 -175 17 -17 20 -17 31 -2 10 14 8 25 -11 59 -26
47 -63 145 -95 255 -11 39 -24 72 -29 72 -4 0 -16 -9 -26 -20z"/>
<path d="M1510 1256 c-19 -7 -42 -25 -50 -39 -14 -25 -13 -31 33 -116 29 -54
44 -92 37 -96 -17 -10 -11 -33 9 -40 12 -4 26 -25 36 -56 15 -44 37 -70 50
-57 2 2 -2 26 -10 52 l-15 49 38 -7 c76 -14 212 -19 212 -9 0 20 -25 30 -130
52 -57 12 -109 26 -114 31 -5 5 13 40 43 85 56 84 60 102 32 136 -14 18 -30
23 -77 26 -32 1 -75 -3 -94 -11z"/>
<path d="M1326 1180 c-70 -45 -84 -141 -37 -255 5 -11 22 -54 38 -95 16 -41
33 -73 38 -72 4 2 11 -2 15 -8 5 -9 13 -9 27 -1 29 15 103 78 125 106 25 33
13 53 -16 27 -24 -23 -116 -82 -127 -82 -9 0 -39 76 -39 99 0 22 64 79 98 87
25 7 27 13 9 38 -13 17 -15 17 -45 2 -17 -9 -42 -30 -54 -47 l-23 -30 -12 48
c-21 80 -17 105 20 131 18 12 41 22 50 22 18 0 21 9 11 34 -8 22 -43 20 -78
-4z"/>
<path d="M1125 1063 c-77 -19 -122 -156 -95 -286 9 -47 21 -68 55 -104 42 -44
46 -45 89 -41 25 3 57 13 70 22 36 23 89 104 81 124 -5 12 -11 7 -30 -25 -45
-75 -95 -91 -157 -48 -48 32 -73 97 -73 188 0 63 2 71 29 93 38 33 70 29 74
-11 2 -16 10 -54 18 -83 11 -41 19 -52 32 -50 32 7 13 125 -30 188 -25 36 -32
40 -63 33z"/>
</g>
</svg>
