<?xml version="1.0" standalone="no"?>
<!DOCTYPE svg PUBLIC "-//W3C//DTD SVG 20010904//EN"
 "http://www.w3.org/TR/2001/REC-SVG-20010904/DTD/svg10.dtd">
<svg version="1.0" xmlns="http://www.w3.org/2000/svg"
 width="500.000000pt" height="100.000000pt" viewBox="0 0 500.000000 100.000000"
 preserveAspectRatio="xMidYMid meet">
<metadata>
Created by potrace 1.13, written by Peter Selinger 2001-2015
</metadata>
<g transform="translate(0.000000,100.000000) scale(0.100000,-0.100000)"
fill="#000000" stroke="none">
<path d="M206 738 c-20 -31 -166 -465 -166 -493 0 -47 23 -53 195 -53 184 -1
184 -1 211 84 19 61 -3 55 199 59 141 3 129 0 168 35 l35 30 4 -25 c3 -14 1
-25 -3 -25 -14 0 -10 -48 6 -79 8 -16 28 -40 44 -54 l30 -25 262 -1 c210 0
268 3 297 15 50 21 121 81 138 118 l15 31 146 -2 c80 -1 147 -4 149 -5 2 -2
-3 -22 -11 -43 -19 -54 -18 -72 5 -95 19 -19 32 -20 170 -18 130 1 152 4 166
20 16 17 18 17 40 -1 21 -16 44 -19 176 -20 169 -1 191 5 203 59 7 34 21 39
29 12 4 -11 18 -30 32 -43 26 -24 26 -24 294 -27 259 -3 271 -2 312 19 24 12
51 28 60 37 16 14 18 14 18 -1 0 -9 10 -25 21 -36 20 -18 35 -20 166 -19 120
0 147 3 165 18 20 16 22 16 40 -2 17 -17 34 -19 176 -18 113 2 163 6 178 15
15 10 34 52 64 140 58 175 63 186 80 175 8 -6 28 -10 44 -10 23 0 27 -3 21
-17 -38 -101 -75 -221 -75 -249 0 -22 6 -36 18 -42 9 -5 85 -10 168 -11 131
-1 154 1 173 16 13 11 39 70 70 158 l49 140 55 5 c31 3 61 10 67 16 16 16 60
144 60 175 0 14 -8 33 -18 42 -16 15 -50 16 -303 13 -156 -2 -291 -4 -299 -4
-8 -1 -90 1 -182 4 -156 4 -169 3 -187 -15 -19 -19 -20 -19 -37 0 -17 18 -28
19 -173 15 -193 -6 -158 -6 -340 0 -85 3 -164 3 -176 0 -13 -3 -28 -20 -35
-37 l-13 -31 -13 31 c-7 17 -23 33 -36 36 -13 3 -88 4 -168 1 -80 -3 -152 -5
-160 -4 -8 0 -90 2 -182 4 -158 5 -168 4 -188 -16 -20 -20 -20 -20 -40 0 -17
17 -33 19 -162 19 -102 -1 -149 -5 -164 -14 -13 -8 -32 -44 -48 -92 l-28 -78
-151 5 -152 5 3 27 c4 37 -33 105 -70 128 -29 17 -54 19 -291 20 -257 0 -260
0 -301 -24 -22 -13 -54 -38 -70 -55 -36 -38 -46 -39 -46 -5 0 15 -12 38 -29
55 l-29 29 -331 0 -331 0 -14 -22z m668 -50 c26 -37 20 -115 -13 -171 -45 -78
-97 -127 -134 -127 -18 -1 -92 -2 -166 -3 l-133 -2 -23 -63 c-13 -35 -25 -66
-29 -69 -6 -6 -255 -11 -272 -5 -10 3 56 212 141 450 3 9 74 12 309 12 304 0
305 0 320 -22z m762 -12 c27 -30 32 -88 12 -131 l-11 -25 -139 0 -140 0 7 40
c6 36 4 41 -18 51 -28 13 -79 -8 -96 -39 -8 -16 -71 -198 -71 -207 0 -3 11
-12 24 -20 34 -23 70 -5 106 52 16 26 30 42 30 35 0 -10 27 -13 118 -12 64 1
123 1 131 1 9 -1 11 -9 7 -27 -4 -16 -2 -32 6 -42 11 -13 10 -15 -3 -10 -11 4
-27 -4 -45 -23 -66 -69 -65 -69 -347 -71 -241 -2 -258 0 -278 18 -42 37 -41
55 6 194 24 71 52 141 63 154 25 33 75 74 100 83 12 5 132 8 268 7 l247 0 23
-28z m744 20 c0 -6 -8 -33 -19 -61 -38 -102 -39 -95 23 -95 l55 0 20 55 c11
30 23 66 27 80 3 14 11 26 18 26 32 5 276 3 276 -1 -1 -15 -146 -440 -154
-447 -1 -2 -67 -4 -145 -6 -108 -1 -140 1 -137 10 3 7 1 15 -5 19 -6 4 -4 10
5 17 16 13 48 96 40 108 -5 9 -85 6 -101 -4 -7 -5 -13 -18 -13 -31 0 -12 -3
-26 -7 -30 -4 -4 -15 -26 -23 -49 l-15 -41 -128 -1 c-90 0 -127 3 -127 12 0
13 137 409 151 434 7 14 28 16 134 16 82 0 125 -4 125 -11z m751 3 c9 -5 -2
-49 -44 -169 -55 -160 -56 -161 -36 -181 35 -35 93 -17 107 33 28 96 106 304
118 314 15 12 267 13 272 1 4 -8 -35 -128 -84 -261 -21 -56 -45 -102 -66 -123
-62 -65 -65 -65 -347 -66 l-255 0 -23 27 c-13 15 -23 39 -23 54 0 15 21 85 46
157 25 72 52 151 61 176 l15 46 124 0 c67 0 128 -4 135 -8z m799 -71 c14 -43
27 -78 31 -78 3 0 16 34 30 75 15 48 29 75 39 75 8 1 73 3 143 5 l129 4 -7
-27 c-8 -31 -96 -289 -129 -377 l-22 -60 -139 3 c-77 2 -142 6 -145 8 -3 3
-17 36 -31 72 l-27 67 -15 -36 c-8 -20 -18 -50 -22 -67 -3 -18 -12 -35 -18
-39 -6 -3 -66 -7 -134 -7 -136 -1 -134 -2 -108 62 11 25 12 38 5 40 -7 3 -5 8
4 16 9 6 40 83 69 170 40 117 59 162 73 166 10 4 71 7 134 6 l115 -1 25 -77z
m984 71 c3 -3 -5 -34 -18 -69 l-24 -65 -63 -5 -64 -5 -50 -147 c-27 -81 -53
-150 -57 -153 -8 -8 -266 -10 -273 -3 -3 3 -1 18 5 33 6 16 8 35 6 42 -3 8 -2
12 3 9 7 -5 82 196 81 218 0 5 -25 8 -55 7 -30 -1 -55 1 -55 6 0 14 28 101 38
120 9 17 29 18 266 17 141 0 258 -3 260 -5z m-2957 -231 l-22 -63 -117 0 c-64
0 -119 3 -122 6 -5 5 3 34 29 107 3 9 38 12 129 12 l125 0 -22 -62z"/>
</g>
</svg>
